<svg width="366" height="506" viewBox="0 0 366 506" fill="none" xmlns="http://www.w3.org/2000/svg">
<path d="M98.98 18.752H120.316V71H98.98V47.312H85.96V71H64.624V18.752H85.96V42.356H98.98V18.752ZM175.773 18.752V23.708H161.325V71H139.989V23.708H125.793V18.752H175.773ZM200.592 71H181.272V18.752H203.952L216.216 49.16L228.564 18.752H251.16V71H231.84V36.14L222.516 59.66H210L200.592 36.308V71ZM282.589 66.044H305.605V71H261.253V18.752H282.589V66.044Z" fill="#1E1C1B"/>
<path d="M366 96H0L32.3718 468.428L165.162 506H198.195L333.628 468.428L366 96Z" fill="#FE6732"/>
<path d="M332 130H183V301V472L304.143 438.382L332 130Z" fill="#F17C49"/>
<path d="M279.5 198H87L93 286H252.5L247 383.5L171 403.5L98 383.5V331" stroke="white" stroke-width="49"/>
</svg>
