<svg width="366" height="506" viewBox="0 0 366 506" fill="none" xmlns="http://www.w3.org/2000/svg">
<path d="M366 96.7266H0L32.3718 468.494L165.162 506H198.195L333.628 468.494L366 96.7266Z" fill="#0277BD"/>
<path d="M330 130.406H183V301.103V471.8L302.517 438.241L330 130.406Z" fill="#039BE6"/>
<path d="M80 198.421H256L246.737 375.347L178.189 399.431L110.568 376.891V329.958" stroke="white" stroke-width="45"/>
<path d="M251.369 285.494H130.948" stroke="white" stroke-width="45"/>
<path d="M150.985 37.568H134.773V26.312C134.773 25.192 134.605 24.492 134.269 24.212C133.989 23.876 133.289 23.708 132.169 23.708H121.921C120.801 23.708 120.073 23.876 119.737 24.212C119.457 24.492 119.317 25.192 119.317 26.312V63.44C119.317 64.56 119.457 65.288 119.737 65.624C120.073 65.904 120.801 66.044 121.921 66.044H132.169C133.289 66.044 133.989 65.904 134.269 65.624C134.605 65.288 134.773 64.56 134.773 63.44V52.352H150.985V64.364C150.985 68.788 148.773 71 144.349 71H109.741C105.317 71 103.105 68.788 103.105 64.364V25.388C103.105 20.964 105.317 18.752 109.741 18.752H144.349C148.773 18.752 150.985 20.964 150.985 25.388V37.568ZM191.093 63.44V49.748C191.093 48.684 190.925 47.984 190.589 47.648C190.309 47.312 189.609 47.144 188.489 47.144H166.565C162.141 47.144 159.929 44.932 159.929 40.508V25.388C159.929 20.964 162.141 18.752 166.565 18.752H200.417C204.841 18.752 207.053 20.964 207.053 25.388V35.132H190.841V26.312C190.841 25.192 190.673 24.492 190.337 24.212C190.001 23.876 189.301 23.708 188.237 23.708H178.745C177.625 23.708 176.897 23.876 176.561 24.212C176.281 24.492 176.141 25.192 176.141 26.312V39.584C176.141 40.704 176.281 41.432 176.561 41.768C176.897 42.048 177.625 42.188 178.745 42.188H200.669C205.093 42.188 207.305 44.4 207.305 48.824V64.364C207.305 68.788 205.093 71 200.669 71H166.817C162.393 71 160.181 68.788 160.181 64.364V54.62H176.393V63.44C176.393 64.56 176.561 65.288 176.897 65.624C177.233 65.904 177.933 66.044 178.997 66.044H188.489C189.609 66.044 190.309 65.904 190.589 65.624C190.925 65.288 191.093 64.56 191.093 63.44ZM248.022 63.44V49.748C248.022 48.684 247.854 47.984 247.518 47.648C247.238 47.312 246.538 47.144 245.418 47.144H223.494C219.07 47.144 216.858 44.932 216.858 40.508V25.388C216.858 20.964 219.07 18.752 223.494 18.752H257.346C261.77 18.752 263.982 20.964 263.982 25.388V35.132H247.77V26.312C247.77 25.192 247.602 24.492 247.266 24.212C246.93 23.876 246.23 23.708 245.166 23.708H235.674C234.554 23.708 233.826 23.876 233.49 24.212C233.21 24.492 233.07 25.192 233.07 26.312V39.584C233.07 40.704 233.21 41.432 233.49 41.768C233.826 42.048 234.554 42.188 235.674 42.188H257.598C262.022 42.188 264.234 44.4 264.234 48.824V64.364C264.234 68.788 262.022 71 257.598 71H223.746C219.322 71 217.11 68.788 217.11 64.364V54.62H233.322V63.44C233.322 64.56 233.49 65.288 233.826 65.624C234.162 65.904 234.862 66.044 235.926 66.044H245.418C246.538 66.044 247.238 65.904 247.518 65.624C247.854 65.288 248.022 64.56 248.022 63.44Z" fill="#1E1C1B"/>
</svg>
