<svg width="350" height="361" viewBox="0 0 350 361" fill="none" xmlns="http://www.w3.org/2000/svg">
<path d="M0 78C0 34.9218 34.9218 0 78 0H272C315.078 0 350 34.9218 350 78V282.239C350 325.318 315.078 360.239 272 360.239H78C34.9218 360.239 0 325.318 0 282.239V78Z" fill="#32183F"/>
<path d="M101.702 276V81.4H195.666C211.79 81.4 224.532 83.9947 233.891 89.184C243.343 94.2807 250.062 100.86 254.046 108.922C258.124 116.984 260.162 125.417 260.162 134.22C260.162 142.838 258.633 150.761 255.575 157.989C252.61 165.217 247.004 170.731 238.756 174.53C245.521 177.125 250.942 180.831 255.019 185.65C259.097 190.469 262.016 195.751 263.776 201.496C265.63 207.149 266.556 212.523 266.556 217.62C266.556 224.663 265.352 231.659 262.942 238.609C260.533 245.559 256.687 251.86 251.405 257.513C246.216 263.073 239.312 267.567 230.694 270.996C222.169 274.332 211.698 276 199.28 276H101.702ZM145.626 234.578H201.226C206.508 234.578 210.678 233.605 213.736 231.659C216.794 229.713 218.926 227.35 220.13 224.57C221.428 221.79 222.076 219.103 222.076 216.508C222.076 213.265 221.335 210.114 219.852 207.056C218.462 203.905 215.729 201.311 211.651 199.272C207.574 197.233 201.597 196.214 193.72 196.214H145.626V234.578ZM145.626 156.738H191.496C199.836 156.738 205.906 155.209 209.705 152.151C213.505 149 215.404 144.784 215.404 139.502C215.404 136.815 214.941 134.174 214.014 131.579C213.088 128.984 211.234 126.853 208.454 125.185C205.674 123.424 201.504 122.544 195.944 122.544H145.626V156.738Z" fill="white"/>
</svg>
